<?xml version="1.0" standalone="no"?>
<!DOCTYPE svg PUBLIC "-//W3C//DTD SVG 20010904//EN"
 "http://www.w3.org/TR/2001/REC-SVG-20010904/DTD/svg10.dtd">
<svg version="1.0" xmlns="http://www.w3.org/2000/svg"
 width="700.000000pt" height="700.000000pt" viewBox="0 0 700.000000 700.000000"
 preserveAspectRatio="xMidYMid meet">
<metadata>
Created by potrace 1.11, written by Peter Selinger 2001-2013
</metadata>
<g transform="translate(0.000000,700.000000) scale(0.100000,-0.100000)"
fill="#000000" stroke="none">
<path d="M3287 6794 c-1 -1 -58 -5 -127 -9 -69 -4 -127 -8 -130 -10 -3 -2 -32
-6 -65 -9 -299 -27 -737 -159 -1070 -322 -199 -97 -511 -292 -611 -382 -11 -9
-53 -44 -94 -77 -70 -57 -306 -285 -360 -350 -133 -158 -235 -293 -291 -385
-18 -30 -36 -57 -39 -60 -26 -21 -187 -335 -250 -485 -79 -190 -177 -522 -196
-664 -3 -25 -8 -49 -10 -52 -2 -3 -6 -34 -10 -70 -3 -35 -8 -66 -10 -69 -24
-42 -23 -718 1 -792 2 -7 6 -38 10 -68 15 -141 73 -392 134 -575 64 -196 187
-467 281 -620 22 -36 40 -67 40 -70 0 -5 150 -225 160 -235 3 -3 17 -21 30
-40 13 -19 27 -37 30 -40 3 -3 27 -32 55 -65 217 -261 467 -485 750 -670 196
-129 329 -200 575 -308 162 -71 522 -178 685 -203 28 -4 57 -9 65 -10 62 -12
81 -14 130 -20 30 -3 66 -7 80 -10 122 -22 520 -22 720 0 129 14 160 18 200
26 25 5 63 12 85 15 21 3 103 21 181 40 555 134 1076 410 1499 795 243 221
465 494 632 775 64 107 165 304 193 375 7 19 22 55 33 80 59 135 140 410 177
605 23 117 33 190 47 340 14 150 7 570 -11 660 -2 12 -7 48 -11 80 -4 33 -9
69 -12 80 -2 11 -8 47 -14 79 -5 33 -12 62 -14 65 -1 3 -6 22 -9 41 -11 68
-90 330 -131 436 -47 121 -59 146 -123 278 -164 335 -378 634 -642 896 -59 58
-133 128 -166 155 -32 28 -63 55 -69 61 -5 6 -48 40 -95 76 -535 410 -1177
654 -1850 704 -83 6 -378 13 -383 8z m345 -488 c47 -3 110 -9 139 -12 30 -4
60 -7 67 -7 18 0 15 -12 -11 -44 -22 -27 -275 -371 -457 -622 -47 -64 -126
-173 -177 -241 -50 -69 -205 -281 -345 -471 -139 -190 -261 -357 -271 -370
-66 -90 -250 -341 -309 -424 -40 -55 -75 -102 -78 -105 -3 -3 -22 -27 -41 -55
-18 -27 -39 -56 -46 -65 -42 -53 -585 -798 -597 -818 -5 -7 -5 -29 -2 -48 13
-66 -21 -64 829 -61 760 2 765 2 760 -18 -2 -11 -6 -33 -9 -50 -3 -16 -11 -66
-19 -110 -8 -44 -16 -91 -19 -105 -2 -14 -15 -86 -29 -160 -15 -74 -33 -173
-41 -220 -8 -47 -26 -146 -40 -220 -13 -74 -27 -153 -31 -175 -3 -22 -7 -47
-10 -55 -2 -8 -6 -31 -9 -50 -7 -40 -9 -56 -36 -195 -10 -55 -21 -118 -24
-140 -4 -22 -9 -47 -11 -55 -3 -8 -18 -91 -34 -185 -17 -93 -32 -179 -34 -190
-3 -11 -7 -36 -10 -55 -14 -76 -17 -96 -21 -115 -2 -11 -7 -40 -12 -65 -4 -25
-9 -48 -10 -52 -1 -5 -2 -16 -3 -25 -3 -41 -14 -44 -91 -22 -305 84 -628 239
-900 432 -47 33 -87 63 -90 66 -3 3 -25 22 -50 41 -109 84 -310 282 -416 410
-84 101 -214 283 -214 299 0 6 -4 11 -10 11 -5 0 -10 5 -10 11 0 6 -8 23 -19
37 -59 84 -187 358 -244 522 -33 93 -86 283 -93 330 -3 19 -7 41 -10 49 -7 23
-33 202 -41 292 -15 157 -9 468 12 609 2 14 7 50 11 80 4 30 8 57 9 60 1 3 5
23 9 45 83 428 286 862 569 1218 77 97 285 314 372 388 401 340 847 556 1365
659 161 32 192 36 365 46 66 4 121 7 122 9 5 3 207 -3 295 -9z m616 -111 c389
-112 766 -316 1097 -594 126 -107 445 -457 445 -490 0 -5 4 -11 8 -13 13 -5
122 -170 175 -263 163 -292 285 -643 332 -955 36 -237 39 -541 9 -800 -5 -38
-17 -104 -60 -310 -21 -103 -99 -326 -165 -474 -331 -735 -981 -1313 -1759
-1564 -81 -26 -180 -55 -187 -54 -2 0 -26 -6 -55 -14 -84 -22 -230 -47 -358
-59 -30 -3 -75 -8 -100 -11 -49 -6 -386 -6 -435 0 -16 2 -64 7 -105 11 -41 4
-77 9 -79 11 -2 1 14 27 35 56 45 61 477 652 570 778 34 47 117 159 183 250
66 91 129 176 138 189 52 70 910 1241 1175 1605 140 191 154 219 125 257 -30
40 -31 40 -810 38 -413 -1 -757 -1 -763 0 -8 1 -7 21 2 69 7 37 21 110 30 162
9 52 18 104 20 115 4 17 36 189 49 265 7 37 44 241 50 270 2 14 11 63 19 110
9 47 22 123 31 170 8 47 18 101 21 120 3 19 7 42 9 50 3 8 7 33 10 55 4 22 8
47 10 55 2 8 7 31 10 50 3 19 10 58 15 85 5 28 11 61 14 75 2 14 11 63 20 110
8 47 18 99 20 115 17 98 98 542 101 553 6 18 21 16 153 -23z"/>
</g>
</svg>
